<?xml version="1.0" encoding="UTF-8"?>
<svg id="_レイヤー_2" data-name="レイヤー 2" xmlns="http://www.w3.org/2000/svg" viewBox="0 0 47.16 7.58">
  <g id="_レイヤー_1-2" data-name="レイヤー 1">
    <g>
      <path d="M0,7.26V1.74c0-.11.07-.18.18-.18h1.25c.11,0,.18.05.18.19l.04.62c.32-.55.85-.96,1.66-.96.76,0,1.34.36,1.67,1.04.32-.6.9-1.04,1.81-1.04,1.26,0,2.03.86,2.03,2.4v3.44c0,.11-.07.18-.18.18h-1.3c-.11,0-.18-.07-.18-.18v-3.08c0-.8-.29-1.24-.94-1.24s-.98.43-.98,1.24v3.08c0,.11-.07.18-.18.18h-1.28c-.12,0-.19-.07-.19-.18v-3.08c0-.8-.3-1.24-.94-1.24s-.98.43-.98,1.24v3.08c0,.11-.07.18-.18.18H.18c-.11,0-.18-.07-.18-.18Z"/>
      <path d="M9.8,4.5c0-1.74,1.31-3.08,3.08-3.08s3.07,1.34,3.07,3.08-1.31,3.08-3.07,3.08-3.08-1.34-3.08-3.08ZM12.89,6.06c.83,0,1.48-.6,1.48-1.56s-.65-1.56-1.48-1.56-1.49.6-1.49,1.56.65,1.56,1.49,1.56Z"/>
      <path d="M16.96,7.26V1.74c0-.11.07-.18.18-.18h1.25c.11,0,.18.05.18.19l.05.7c.34-.6.9-1.03,1.77-1.03,1.22,0,2.12.89,2.12,2.42v3.42c0,.11-.08.18-.19.18h-1.28c-.11,0-.18-.07-.18-.18v-3.05c0-.83-.38-1.27-1.09-1.27s-1.15.44-1.15,1.27v3.05c0,.11-.07.18-.18.18h-1.29c-.11,0-.18-.07-.18-.18Z"/>
      <path d="M23.51,4.5c0-1.74,1.31-3.08,3.08-3.08s3.07,1.34,3.07,3.08-1.31,3.08-3.07,3.08-3.08-1.34-3.08-3.08ZM26.59,6.06c.83,0,1.48-.6,1.48-1.56s-.65-1.56-1.48-1.56-1.49.6-1.49,1.56.65,1.56,1.49,1.56Z"/>
      <path d="M31.1,5.79v-2.95h-.74c-.11,0-.18-.07-.18-.18v-.92c0-.11.07-.18.18-.18h.74V.18c0-.11.07-.18.18-.18h1.31c.11,0,.18.07.18.18v1.38h.92c.11,0,.18.07.18.18v.92c0,.11-.07.18-.18.18h-.92v2.77c0,.35.2.52.52.52.11,0,.23,0,.37-.01.13-.01.22.05.22.17v.88c0,.28-.6.35-1,.35-.94,0-1.77-.43-1.77-1.72Z"/>
      <path d="M34.45,4.5c0-1.74,1.31-3.08,3.08-3.08s3.07,1.34,3.07,3.08-1.31,3.08-3.07,3.08-3.08-1.34-3.08-3.08ZM37.53,6.06c.83,0,1.48-.6,1.48-1.56s-.65-1.56-1.48-1.56-1.49.6-1.49,1.56.65,1.56,1.49,1.56Z"/>
      <path d="M41.6,7.26V1.74c0-.11.07-.18.18-.18h1.25c.11,0,.18.05.18.19l.05.7c.34-.6.9-1.03,1.77-1.03,1.22,0,2.12.89,2.12,2.42v3.42c0,.11-.08.18-.19.18h-1.28c-.11,0-.18-.07-.18-.18v-3.05c0-.83-.38-1.27-1.09-1.27s-1.15.44-1.15,1.27v3.05c0,.11-.07.18-.18.18h-1.29c-.11,0-.18-.07-.18-.18Z"/>
    </g>
  </g>
</svg>