<?xml version="1.0" encoding="UTF-8"?>
<svg id="_レイヤー_2" data-name="レイヤー 2" xmlns="http://www.w3.org/2000/svg" viewBox="0 0 22.23 10.53">
  <g id="_レイヤー_1-2" data-name="レイヤー 1">
    <g>
      <path d="M1.98,6.97c.16.11.34.23.49.37.04.04.04.07.02.11-.26.65-.62,1.7-.62,2.04,0,.12.01.19.04.3s0,.19-.13.24c-.23.08-.54.16-.8.19-.1.01-.12.01-.14.01-.04,0-.05-.02-.07-.06-.58-1.22-.76-2.52-.76-3.75,0-1.64.41-3.18.59-4.17.07-.4.1-.7.1-1.01,0-.04.01-.06.05-.06.02,0,.08.01.18.04.26.06.77.22,1.1.38.24.12.24.23.07.48-.1.14-.19.36-.29.65-.3.9-.59,2.16-.65,3.06-.06.85-.04,1.71.12,2.39.01.04.04.04.05.01.19-.34.43-.79.58-1.19.01-.04.05-.05.08-.02ZM8.89,7.9c.06.34.08.84.08,1.25,0,.04-.01.06-.06.07-.58.11-1.37.2-2.07.2-1.4,0-3.09-.23-3.77-1.51-.02-.04-.01-.06.01-.08.22-.19.53-.42.79-.58.04-.02.06-.01.08.02.55.73,1.6.85,2.48.85.73,0,1.58-.08,2.38-.28.05-.01.06,0,.07.05ZM8.36,3.54c-1.38-.16-3.03-.11-4.51.12-.05.01-.07,0-.08-.05-.05-.34-.08-.77-.08-1.09,0-.05.01-.06.06-.07,1.29-.23,3.14-.29,4.62-.19.05,0,.06.02.07.06.04.32.05.8.01,1.17,0,.04-.04.06-.08.05Z"/>
      <path d="M21.42,5.4s.02.02.02.05-.01.04-.02.05c-.24.25-.66.58-.96.74-.04.02-.07.01-.1-.02-.52-.62-.95-1.27-1.3-2-.01-.02-.02-.01-.02.01.06.32.1.74.1,1.28-.01,2.63-1.16,5.02-3.9,5.02-1.94,0-3.15-1.26-3.15-3.03,0-1.62.86-3.36,1.87-4.64.02-.02.01-.05-.04-.02-.38.13-.77.28-1.13.41-.19.07-.32.13-.48.24-.16.11-.26.08-.38-.16-.19-.4-.31-.8-.37-1.04v-.02s.02-.04.06-.04c.28.01.55-.02.82-.07.72-.13,1.48-.31,2.08-.54.19-.07.34-.14.44-.22.11-.07.16-.1.2-.1s.11.02.22.1c.19.13.55.43.74.62.14.14.14.22-.04.32-.35.2-.62.43-.98.85-1,1.15-1.81,2.93-1.81,4.1s.58,1.96,1.92,1.96c2.14,0,2.82-2.15,2.88-4.08.02-.83-.02-1.7-.12-2.33-.07-.44-.12-.7-.2-.97-.01-.04-.01-.06.04-.07.31-.08.79-.17,1.09-.19.05,0,.06.01.07.06.06.3.19.63.37,1.04.31.71,1.13,1.87,2.09,2.69ZM19.89.88c.32.31.84.94,1.16,1.4.02.04.02.07,0,.1-.18.17-.42.36-.62.48-.02.01-.04.01-.05.01s-.02,0-.06-.06c-.29-.44-.71-1.02-1.08-1.43-.05-.05-.05-.06-.05-.07,0-.02.01-.04.04-.06.19-.17.38-.31.54-.4.05-.02.06-.02.12.02ZM20.97,0s.04.01.05.02c.32.31.88.96,1.16,1.34.05.06.05.08.05.1s0,.02-.02.05c-.17.17-.41.35-.6.46-.05.02-.07.02-.11-.04-.3-.44-.78-1.03-1.13-1.39-.04-.04-.05-.07-.01-.11.16-.14.38-.31.54-.41.05-.02.06-.02.07-.02Z"/>
    </g>
  </g>
</svg>